<svg width="111" height="111" viewBox="0 0 111 111" fill="none" xmlns="http://www.w3.org/2000/svg">
<path class="load-voarmais" d="M105.549 36.6112C104.749 34.9233 103.021 33.8667 100.804 33.6743C100.218 33.6237 99.6418 33.6203 99.1334 33.6169C98.5183 33.6386 97.9026 33.5956 97.2966 33.4886C96.3322 33.2489 95.3421 33.1264 94.3481 33.124C93.8255 33.1243 93.3035 33.1604 92.7858 33.2321C92.7282 33.2321 92.674 33.2557 92.6164 33.2658C88.7438 27.3658 83.5876 22.4097 77.5302 18.765C71.4727 15.1203 64.6693 12.8806 57.6244 12.2118C50.5796 11.5431 43.4739 12.4625 36.8344 14.9019C30.1948 17.3413 24.1917 21.2381 19.2701 26.3033C14.3484 31.3686 10.6346 37.4724 8.40383 44.1622C6.17309 50.852 5.4827 57.9561 6.38385 64.9479C7.28501 71.9397 9.75458 78.6397 13.6095 84.5512C17.4644 90.4628 22.6057 95.4341 28.6522 99.0968C21.6365 92.6892 16.6664 84.3689 14.3598 75.1703C12.0533 65.9717 12.5121 56.3006 15.6791 47.3597C16.0689 46.2659 16.5026 45.1992 16.9602 44.1527C15.3359 50.177 15.0899 56.4876 16.2403 62.6192C17.3907 68.7508 19.9082 74.5469 23.6071 79.5803C27.3059 84.6136 32.0919 88.7557 37.612 91.7011C43.1321 94.6466 49.2456 96.3202 55.5015 96.5986C61.7575 96.877 67.9964 95.753 73.7582 93.3097C79.52 90.8663 84.6577 87.1658 88.7924 82.4811C92.9272 77.7963 95.9535 72.2469 97.6482 66.2419C99.343 60.2369 99.6629 53.9296 98.5844 47.785C101.014 46.2119 103.163 44.5578 104.834 42.1171C106.081 40.2807 106.342 38.2788 105.549 36.6112ZM102.98 40.8849C101.211 43.4674 98.7166 45.1283 95.8834 46.8803C91.5336 49.5795 86.9665 51.9145 82.229 53.8614C81.2395 54.2665 80.8328 54.7594 80.6769 55.7552C80.0364 59.8568 79.3213 64.0191 78.6435 68.043C78.3475 69.7804 78.0549 71.5201 77.7657 73.262C77.5929 74.2747 77.3794 75.571 76.0712 76.3677C75.1257 76.9416 74.5055 77.215 74.0005 77.2859C72.6212 77.4783 72.14 76.1381 71.7672 74.7473C71.5537 73.9574 71.3368 73.1641 71.1199 72.3843C70.5844 70.4331 70.0286 68.4144 69.5508 66.4092C69.3373 65.5112 68.812 65.1095 67.9715 64.5322C65.8771 63.0908 63.8776 62.5574 61.6781 62.8646C60.6684 63.0171 59.6837 63.3032 58.75 63.7153C54.4595 65.5416 49.82 66.5003 45.3329 67.4286L43.6893 67.7662C43.0928 67.8911 42.7471 68.0532 42.6014 68.2793C42.4672 68.5677 42.449 68.8963 42.5506 69.1975C42.5988 69.4671 42.6102 69.7419 42.5845 70.0145C42.5637 70.2007 42.5637 70.3886 42.5845 70.5749C42.7234 71.3445 42.7573 72.4518 41.4729 73.1776C41.2531 73.3076 41.0103 73.3947 40.7578 73.4341C39.9952 73.5388 39.4496 73.0966 38.9718 72.7117C38.8938 72.651 38.8193 72.5868 38.7379 72.5261L38.1855 72.0906C37.3925 71.4863 36.5757 70.8584 35.8132 70.2002C35.0507 69.5419 34.3729 69.0524 33.3528 69.1874C33.2579 69.1874 33.163 69.2178 33.0613 69.2414C32.9607 69.2657 32.8589 69.2849 32.7563 69.2988C32.0311 69.4001 31.455 69.2313 31.133 68.8262C30.811 68.4211 30.7941 67.8135 31.0957 67.0708C31.1601 66.9122 31.1533 66.8413 31.1466 66.8278C31.1398 66.8143 30.8585 66.6893 30.7467 66.6556C30.5966 66.6144 30.4512 66.5578 30.3129 66.4868C28.5573 65.5213 26.7544 64.5626 25.0091 63.6377C23.9494 63.0728 22.8898 62.5101 21.8302 61.9498C21.7522 61.9093 21.6641 61.8721 21.5726 61.835C21.1964 61.6763 20.4068 61.3455 20.6305 60.4509C20.8203 59.6812 21.6641 59.3572 22.0708 59.2019C22.3285 59.1033 22.5969 59.0353 22.8706 58.9993C23.5208 58.9301 24.178 58.9678 24.8159 59.1107C26.8493 59.4888 28.8827 59.8602 31.0517 60.2585L32.8987 60.5961L32.5869 59.7386C32.1938 58.6584 31.8277 57.6524 31.455 56.6532C31.1161 55.7485 31.1161 54.9653 31.4855 54.3712C31.6522 54.1124 31.8765 53.8953 32.1409 53.7367C32.4054 53.5781 32.7029 53.4821 33.0105 53.4563C33.3279 53.4172 33.6489 53.4172 33.9662 53.4563C35.0097 53.5937 36.0053 53.9767 36.8706 54.5737C38.5854 55.6675 40.3409 56.7612 42.0388 57.8212L42.6929 58.2297C42.7742 58.2769 42.8522 58.3309 42.9335 58.3849C43.2961 58.6246 43.53 58.7732 43.8045 58.7225C43.893 58.7073 43.9787 58.6788 44.0587 58.6381C46.1836 57.6051 48.3119 56.5823 50.5859 55.4919L52.4363 54.6007C51.6128 54.1652 50.8435 53.7028 50.0911 53.2504C48.5389 52.3187 47.0715 51.4376 45.3939 50.9312C39.6055 49.1826 33.7391 47.3529 28.0659 45.584C25.7931 44.8729 23.5179 44.1639 21.2405 43.4573L20.7287 43.2986L20.9897 42.8328C22.0877 40.8849 22.8231 39.9802 24.3008 39.7743C25.0841 39.6958 25.8742 39.7151 26.6527 39.8317L37.2603 40.9963C48.5084 42.2251 60.1361 43.4944 71.5638 44.8413C72.0521 44.9039 72.5464 44.9039 73.0347 44.8413C74.2886 44.6658 75.3663 44.1088 76.505 43.5214C76.7253 43.4066 76.9456 43.2919 77.1828 43.1838C78.3283 42.6066 79.5111 42.0563 80.6532 41.5263C83.5033 40.1997 86.4518 38.8257 89.0816 36.9724C90.2585 36.1335 91.6209 35.5893 93.0535 35.3858C94.2874 35.2219 95.5414 35.2953 96.7476 35.6019C97.5149 35.7538 98.2973 35.8172 99.0792 35.7909C99.5706 35.7909 100.079 35.7909 100.581 35.8415C102.031 35.9664 103.085 36.5741 103.553 37.5531C104.02 38.532 103.793 39.6832 102.98 40.8849Z" fill="white"/>
</svg>
